<svg xmlns="http://www.w3.org/2000/svg" xml:space="preserve" width="1500" height="670" data-id="lg_UQ5ThR5npa7R7N7RU0" data-version="1" viewBox="0 0 1500 670"><g data-padding="20"><g transform="translate(10 15.914)scale(.9525)"><path fill="#1c1c1c" d="m772.4 1.213-140.672 39.2v9.184c0 9.912-29.736 27.776-56.448 37.52l-8.848 3.304v213.864c0 70.952 35.448 137.368 102.48 191.968a425.6 425.6 0 0 0 101.976 61.376l5.992 2.352 5.992-2.352c2.072-.84 51.744-20.552 101.92-61.376 67.088-54.6 102.592-120.96 102.592-191.968V90.365l-8.904-3.136c-26.712-9.8-56.448-27.664-56.448-37.576v-9.24L776.88-.019Z"/><path fill="none" stroke="#fff" stroke-width="2" d="m120.997-9.214-25.12 7v1.64c0 1.77-5.31 4.96-10.08 6.7l-1.58.59v38.19c0 12.67 6.33 24.53 18.3 34.28a76 76 0 0 0 18.21 10.96l1.07.42 1.07-.42c.37-.15 9.24-3.67 18.2-10.96 11.98-9.75 18.32-21.6 18.32-34.28v-38.2l-1.59-.56c-4.77-1.75-10.08-4.94-10.08-6.71v-1.65l-25.92-7.22Z" paint-order="stroke" transform="matrix(5.25 0 0 5.34 137.447 60.05)"/><rect width="259.419" height="111.249" x="247.227" y="-106.003" fill="none" rx="0" ry="0" transform="translate(400.51 288.93)"/><path fill="#fff" d="M684.486 230.781h-10.31l-8.61-15.37h-4.23l-1.85-.41.8-5.5v-.88h5.8q1.93 0 3.1-.66t1.69-1.86.52-2.82q0-2.01-.71-3.02-.72-1.02-1.89-1.39t-2.6-.37l-4.37-.03-1.92-3.11-.44-4.56h7.86q3.85 0 6.78 1.29t4.58 3.9q1.65 2.62 1.65 6.55 0 3.05-1.16 5.71-1.15 2.65-3.6 4.31-2.45 1.67-6.32 1.83l1.1-.44q1.07 0 1.98.19.9.2 1.67.72t1.38 1.48Zm-22.63 0h-8.72v-39.98h8.72Zm32.01 0h-9.27l12.02-39.98h13.39l12.02 39.98h-9.27l-3.6-12.92 4.84 3.63h-19.72l.5-6.93h17.29l-2.94 3.19-3.63-13.01-2.01-8.17h-.44l-1.98 8.17Zm63.14 0h-8.77v-39.98h8.77Zm-22.11 0h-8.77v-39.98h8.77Zm14.77-16.58h-17.36v-7.87h17.38Zm23.48 16.58h-8.55v-39.98h14.52l5.06 22.16 1.4 6.85h.11l1.43-6.85 4.98-22.16h14.57v39.98h-8.55v-20.21l.85-12.93h-.27l-3.71 12.85-5.78 20.29h-7.07l-5.85-20.29-3.72-12.85h-.27l.85 12.93Zm46.9 0h-9.27l12.02-39.98h13.39l12.02 39.98h-9.27l-3.6-12.92 4.84 3.63h-19.72l.5-6.93h17.29l-2.94 3.19-3.63-13.01-2.01-8.17h-.44l-1.98 8.17Zm40.74 0h-8.49v-39.98h11.16l11.52 23.76 3.06 8.36h.19l-1.16-10.26v-21.86h8.5v39.98h-11.25l-11.46-23.76-2.89-7.62h-.28l1.1 11.88Zm41.02 0h-8.83v-39.98h8.83Zm-210.6 49.1h-14.08v-39.98h13.95q4.56 0 7.52 1.23 2.95 1.24 4.4 3.44 1.44 2.2 1.44 5.12 0 3.71-2.16 5.94-2.16 2.22-5.59 2.53 3.02.3 5.07 1.45 2.05 1.16 3.11 3.15 1.06 2 1.06 4.91 0 3.85-1.74 6.59-1.73 2.73-5.01 4.18-3.29 1.44-7.97 1.44m-5.5-17.52v10.26h5.01q3.27 0 4.67-1.18 1.41-1.18 1.41-4.02 0-2.2-.76-3.27t-2.19-1.43-3.49-.36Zm0-15.26v9.05h4.76q1.73 0 2.88-.55 1.14-.55 1.7-1.62.56-1.08.56-2.64 0-2.23-1.43-3.24-1.43-1-3.93-1Zm31.35 32.78h-9.26l12.01-39.98h13.4l12.01 39.98h-9.26l-3.61-12.92 4.84 3.63h-19.71l.49-6.93h17.3l-2.94 3.19-3.63-13.01-2.01-8.17h-.44l-1.98 8.17Zm63.61 0h-10.31l-8.61-15.37h-4.23l-1.85-.41.8-5.5v-.88h5.8q1.93 0 3.1-.66t1.69-1.86.52-2.82q0-2.01-.71-3.02-.72-1.02-1.89-1.39t-2.6-.37l-4.37-.03-1.92-3.11-.44-4.56h7.86q3.85 0 6.78 1.29t4.58 3.9q1.65 2.62 1.65 6.55 0 3.05-1.16 5.7-1.15 2.66-3.6 4.32-2.45 1.67-6.32 1.83l1.1-.44q1.07 0 1.98.19.9.2 1.67.72t1.38 1.48Zm-22.63 0h-8.72v-39.98h8.72Zm40.31 0h-14.08v-39.98h13.95q4.56 0 7.52 1.23 2.95 1.24 4.4 3.44 1.44 2.2 1.44 5.12 0 3.71-2.16 5.94-2.16 2.22-5.59 2.53 3.02.3 5.07 1.45 2.05 1.16 3.11 3.15 1.06 2 1.06 4.91 0 3.85-1.74 6.59-1.73 2.73-5.01 4.18-3.29 1.44-7.97 1.44m-5.5-17.52v10.26h5.01q3.27 0 4.67-1.18 1.41-1.18 1.41-4.02 0-2.2-.76-3.27t-2.19-1.43-3.49-.36Zm0-15.26v9.05h4.76q1.73 0 2.88-.55 1.14-.55 1.7-1.62.56-1.08.56-2.64 0-2.23-1.43-3.24-1.43-1-3.93-1Zm50.58 32.78h-25v-39.98h24.5v7.89h-18.56l2.67-2.04v11.47l-2.67-1.73h16.72v7.86h-16.45l2.4-1.7v12.35l-2.67-2.07h19.06Zm37.21 0h-10.31l-8.61-15.37h-4.23l-1.84-.41.79-5.5v-.88h5.81q1.92 0 3.09-.66t1.69-1.86.52-2.82q0-2.01-.71-3.02-.72-1.02-1.88-1.39-1.17-.37-2.6-.37l-4.38-.03-1.92-3.11-.44-4.56h7.86q3.85 0 6.78 1.29t4.58 3.9q1.65 2.62 1.65 6.55 0 3.05-1.15 5.7-1.16 2.66-3.61 4.32-2.44 1.67-6.32 1.83l1.1-.44q1.07 0 1.98.19.91.2 1.68.72t1.37 1.48Zm-22.63 0h-8.72v-39.98h8.72Z"/><rect width="86.974" height="22.6" x="333.449" y="-61.679" fill="none" rx="0" ry="0" transform="translate(400.5 182.74)"/><path fill="#fff" d="M740.046 138.291q-1.66 0-2.83-.66t-1.79-1.91q-.62-1.26-.62-3.04 0-1.84.66-3.1.66-1.27 1.86-1.92t2.81-.65q1.56 0 2.62.59 1.07.59 1.62 1.74t.55 2.83q0 .21-.02.49-.01.27-.03.62h-7.02q.11 1.36.66 1.99.55.62 1.54.62.82 0 1.24-.36.43-.36.51-.95h2.98q-.09 1.13-.69 1.97-.59.83-1.62 1.29-1.03.45-2.43.45m-.92-6.76h2.81q-.04-1.05-.51-1.57-.46-.52-1.42-.52-1.13 0-1.65.81-.52.8-.53 2.28.08-.57.39-.78.31-.22.91-.22m11.47 6.78q-1.41 0-2.43-.41-1.01-.41-1.57-1.24-.56-.84-.62-2.13h3.03q.09.8.51 1.18.43.38 1.15.38.36 0 .69-.08.33-.09.54-.3.21-.22.21-.6 0-.31-.16-.5-.15-.2-.45-.33-.29-.14-.71-.25-.42-.12-.95-.28-.94-.28-1.76-.68-.81-.4-1.31-1.07t-.5-1.76q0-1.63 1.19-2.42 1.2-.79 3.14-.79 1.14 0 2.05.31t1.5 1.1q.6.79.77 2.23l-3.01-.02q-.09-.64-.31-.95-.22-.32-.5-.42-.28-.11-.58-.11-.34 0-.62.11-.27.11-.43.32t-.16.53q0 .38.24.65t.73.48q.49.2 1.25.41.5.13 1.12.32.63.19 1.2.53.58.34.95.92.38.58.38 1.5 0 1.6-1.23 2.49-1.23.88-3.35.88m9.92-.03q-1.35 0-2.1-.68-.75-.69-.76-2.13l-.03-4.88q0-.38.21-.62.22-.24.61-.31l-.82-1.99v-.33l.57-3.23h2.53v10.4q0 .7.17.97.18.27.68.27t.83-.02q.34-.02.64-.07v2.45q-.36.13-1.08.15-.71.02-1.45.02m2.46-8.62h-6.51v-2.42h6.51Zm3.15 8.63q-.72 0-1.23-.52-.51-.53-.51-1.36 0-.82.51-1.34t1.23-.52 1.23.52.51 1.34q0 .83-.51 1.36-.51.52-1.23.52m16.12-.15h-10.14q.66-.83 1.27-1.61t1.18-1.52q.58-.74 1.11-1.44l1.05-1.36q.95-1.24 1.53-2 .58-.77.85-1.33.27-.57.27-1.18 0-.71-.41-1.23-.4-.53-1.46-.52-.66 0-1.15.31t-.69.96q-.2.64 0 1.64h-2.88q-.26-1.97.29-3.19.56-1.23 1.72-1.8 1.17-.57 2.74-.57 1.58 0 2.64.51t1.59 1.42q.53.9.53 2.09 0 1.15-.37 2.09-.37.93-.92 1.71-.54.77-1.06 1.47-.42.55-.84 1.11l-.84 1.1-.84 1.1q.33-.34.75-.44.42-.11 1.17-.11h2.91Zm7.01.22q-1.6 0-2.82-.77-1.21-.78-1.89-2.45-.68-1.68-.68-4.36 0-2.6.68-4.25t1.89-2.43q1.22-.79 2.82-.79 1.61 0 2.81.79 1.21.78 1.88 2.43.68 1.65.68 4.25 0 2.68-.68 4.36-.67 1.67-1.88 2.45-1.2.77-2.81.77m0-2.87q.68 0 1.16-.43.49-.44.75-1.47t.26-2.79q0-1.73-.26-2.74t-.75-1.44q-.48-.44-1.16-.44t-1.17.44q-.49.43-.75 1.44t-.26 2.74q0 1.76.26 2.79t.75 1.47q.49.43 1.17.43m16.43 2.65h-10.14q.66-.83 1.27-1.61t1.18-1.52q.58-.74 1.11-1.44l1.05-1.36q.95-1.24 1.53-2 .58-.77.85-1.33.27-.57.27-1.18 0-.71-.41-1.23-.4-.53-1.46-.52-.66 0-1.15.31t-.69.96q-.2.64 0 1.64h-2.88q-.26-1.97.29-3.19.56-1.23 1.72-1.8 1.17-.57 2.74-.57 1.58 0 2.64.51t1.59 1.42q.53.9.53 2.09 0 1.15-.37 2.09-.37.93-.92 1.71-.54.77-1.06 1.47-.42.55-.84 1.11l-.84 1.1-.84 1.1q.33-.34.75-.44.42-.11 1.17-.11h2.91Z"/><path fill="#fff" d="M815.696 138.141h-2.83v-2.6h-7.2l5.12-11.94h4.94l-.05.04.01 9.36h1.86v2.54h-1.85Zm-5.51-6.25-.68 1.52q.2-.23.43-.32.24-.09.63-.09h3.2q-.55 0-.73-.36-.17-.36-.17-.99v-2.82l.05-3.33-1.42 3.43Zm71.66 306.97q.175-.675.175-1.4c0-4.4-4.8-7.95-10.75-7.95q-3.25.025-5.8 1.25-4.15-1.125-8.7-1.7a16.5 16.5 0 0 0-12.375-4.925c-6.575 0-12.175 3.175-14.025 7.525-10.375 3.525-18.375 9.825-21.825 17.5h34.425c-2.5 2-9.075 5.4-25.325 5.4-10 0-18.325 3.35-24.75 10a40 40 0 0 0-6.825 9.85c-2.3-11.825-3.225-28.65 4.775-31.925 23.075-9.4 39.05-27.55 40.925-46h69.025c-6.2-13.75-20.125-25.2-38.275-32.025q1-1.775 1.025-3.75c0-6.375-8.55-11.55-19.1-11.55q-2.95 0-5.65.5c-3.375-5.725-11.725-9.15-20.9-8-11.325 1.45-19.675 9.325-18.625 17.6l.175.9a92.5 92.5 0 0 0-34.375 14.625l-.1-.025a6.75 6.75 0 0 0-5.45-2.525q-2.175.025-3.8 1a87.5 87.5 0 0 0-31.325 2.4q-2.3-1-5.05-1c-5.3 0-9.7 3.125-10.575 7.25a52.5 52.5 0 0 0-11.675 8.6 25 25 0 0 0-10.725-2.35c-10.55 0-19.075 6.05-19.075 13.525q0 2.65 1.35 5c-7.25 4.675-12.725 10.55-15.725 17.2h38.4c.375 2.25 1.675 6.325 6.35 10.075 6.675 5.425 17.825 8.15 33.15 8.15 6.55 0 11.7 2.025 15.75 6.2 10.4 10.75 9.85 31.7 9.825 31.9h.05l-4.75 70.125c0 2.5 9.925 4.55 22.15 4.55s22.125-2.025 22.125-4.55l-3.35-54.15c.9-7.05 3.25-16.725 9.275-22.95 4.05-4.175 9.2-6.2 15.75-6.2 15.325 0 26.5-2.75 33.15-8.15a16.75 16.75 0 0 0 6.275-9.7h33.125a28.5 28.5 0 0 0-8.35-10.3m-129.8-29.8a60 60 0 0 0-13.175-7.475h12.05q.35 3.925 1.125 7.45m15.425 32.75q-2.125 6.05-2.525 13.8a42.5 42.5 0 0 0-9.4-15.95c-6.425-6.65-14.75-10-24.75-10-13.8 0-20.65-2.425-23.95-4.45q-1.15-.7-1.825-1.35h53.5a34 34 0 0 0 12.625 10.55q-2.25 3.3-3.675 7.4m11-14.8a25 25 0 0 1-9.65-5.9q-6.95-6.95-8.2-19.5h43.175q-1.2-2.65-2.9-5.125h11.05a30 30 0 0 1-6.75 12.7 56.25 56.25 0 0 1-21.75 15.15q-2.625 1.1-4.975 2.675"/><path stroke="#fff" stroke-width="1.7" d="M649.19 170.161h255.932M652 306.441h255.932"/><path fill="#1c1c1c" d="M729.936 669.953a6.1 6.1 0 0 1-4.513-2.115 13.08 13.08 0 0 1-2.9-9.548c.829-11.663 1.417-20.056 2.006-24.33.654-4.73-.044-20.142-2.028-44.58-.48-5.734 1.2-11.445 4.36-14.89a9.16 9.16 0 0 1 6.758-3.226h13.952a8.567 8.567 0 0 1 8.568 8.546 1.09 1.09 0 0 1-1.09 1.09h-13.146v50.118h13.146c.588 0 1.09.48 1.09 1.09a8.567 8.567 0 0 1-8.568 8.545h-8.196c-.938 0-1.962 1.44-1.962 3.51v15.217c0 5.82-3.358 10.573-7.478 10.573m3.706-96.509c-1.853 0-3.64.872-5.166 2.53-2.77 3.007-4.23 8.065-3.815 13.231 1.395 17.157 2.899 38.892 2.027 45.061a515 515 0 0 0-1.962 24.133 10.9 10.9 0 0 0 2.31 7.935c.59.654 1.592 1.44 2.9 1.44 2.856 0 5.276-3.86 5.276-8.394v-15.217c0-3.183 1.83-5.668 4.164-5.668h8.196a6.32 6.32 0 0 0 6.3-5.297h-13.08a1.09 1.09 0 0 1-1.09-1.09v-52.277c0-.61.502-1.09 1.09-1.09h13.08a6.32 6.32 0 0 0-6.3-5.297Z"/><path fill="#1c1c1c" d="M760.65 580.921h-19.837a1.09 1.09 0 0 1 0-2.18h19.838a1.09 1.09 0 1 1 0 2.18m0 8.7h-19.838a1.09 1.09 0 0 1 0-2.18h19.838a1.09 1.09 0 1 1 0 2.18m0 8.72h-19.838a1.09 1.09 0 0 1 0-2.18h19.838a1.09 1.09 0 1 1 0 2.18m0 8.72h-19.838a1.09 1.09 0 0 1 0-2.18h19.838a1.09 1.09 0 1 1 0 2.18m0 8.697h-19.838a1.09 1.09 0 0 1 0-2.18h19.838a1.09 1.09 0 1 1 0 2.18m0 8.72h-19.838a1.09 1.09 0 0 1 0-2.18h19.838a1.09 1.09 0 1 1 0 2.18m0 8.72h-19.838a1.09 1.09 0 0 1 0-2.18h19.838a1.09 1.09 0 1 1 0 2.18m36.079 3.553a1.09 1.09 0 0 1-.915-.523l-23.174-38.913a1.095 1.095 0 0 1 1.875-1.134l23.174 38.892a1.09 1.09 0 0 1-.938 1.656m15.108 25.376a1.09 1.09 0 0 1-.938-.524l-9.09-15.26a1.095 1.095 0 0 1 1.874-1.133l9.09 15.26a1.09 1.09 0 0 1-.936 1.657"/><path fill="#1c1c1c" d="M820.013 670.018a9.156 9.156 0 0 1-9.222-8.982 9.243 9.243 0 1 1 9.222 8.982m-7.042-9.025a6.976 6.976 0 0 0 7.216 6.845 7.041 7.041 0 1 0-7.216-6.867m-10.333-24.307a1.09 1.09 0 0 1-.96-1.613l22.629-40.33a1.09 1.09 0 0 1 1.897 1.068l-22.585 40.33a1.09 1.09 0 0 1-.937.545m-14.018 24.917a1.09 1.09 0 0 1-.96-1.613l8.22-14.65a1.09 1.09 0 0 1 1.896 1.07l-8.218 14.627a1.09 1.09 0 0 1-.938.566"/><path fill="#1c1c1c" d="M780.555 669.735a9.243 9.243 0 1 1 0-18.487 9.243 9.243 0 0 1 0 18.487m0-16.285a7.052 7.052 0 1 0 0 14.105 7.052 7.052 0 0 0 0-14.105m19.227-5.777a6.976 6.976 0 1 1 0-13.952 6.976 6.976 0 0 1 0 13.952m0-11.772a4.796 4.796 0 1 0 0 9.592 4.796 4.796 0 0 0 0-9.592"/></g><path fill="transparent" stroke="transparent" d="M539.5 0h421v670h-421z"/></g></svg>